HIERARCHY
ROOT Pelvis
{
	OFFSET 0.000000 0.000000 0.000000
	CHANNELS 6 Xposition Yposition Zposition Xrotation Yrotation Zrotation
	JOINT LeftUpLeg_virtual
	{
		OFFSET 0.000000 0.000000 0.000000
		CHANNELS 3 Xrotation Yrotation Zrotation
		JOINT LeftUpLeg
		{
			OFFSET 18.735201 -5.666702 -4.541200
			CHANNELS 3 Xrotation Yrotation Zrotation
			JOINT LeftLeg
			{
				OFFSET -0.021200 -31.938179 0.493100
				CHANNELS 3 Xrotation Yrotation Zrotation
				JOINT LeftFoot
				{
					OFFSET 0.021200 -31.938179 -4.336299
					CHANNELS 3 Xrotation Yrotation Zrotation
					JOINT LeftToeBase
					{
						OFFSET 0.943001 -26.722000 15.023500
						CHANNELS 3 Xrotation Yrotation Zrotation
						End Site
						{
							OFFSET 0 0 0
						}
					}
				}
			}
		}
	}
	JOINT RightUpLeg_virtual
	{
		OFFSET 0.000000 0.000000 0.000000
		CHANNELS 3 Xrotation Yrotation Zrotation
		JOINT RightUpLeg
		{
			OFFSET -18.735201 -5.666702 -4.541200
			CHANNELS 3 Xrotation Yrotation Zrotation
			JOINT RightLeg
			{
				OFFSET 0.018946 -31.938133 0.493100
				CHANNELS 3 Xrotation Yrotation Zrotation
				JOINT RightFoot
				{
					OFFSET -0.018946 -31.938126 -4.336299
					CHANNELS 3 Xrotation Yrotation Zrotation
					JOINT RightToeBase
					{
						OFFSET -0.943001 -26.722004 15.023500
						CHANNELS 3 Xrotation Yrotation Zrotation
						End Site
						{
							OFFSET 0 0 0
						}
					}
				}
			}
		}
	}
	JOINT Hips_virtual
	{
		OFFSET 0.000000 0.000000 0.000000
		CHANNELS 3 Xrotation Yrotation Zrotation
		JOINT Hips
		{
			OFFSET -0.000000 -0.000000 -0.000000
			CHANNELS 3 Xrotation Yrotation Zrotation
			JOINT Spine
			{
				OFFSET 0.000000 10.199997 -0.299500
				CHANNELS 3 Xrotation Yrotation Zrotation
				JOINT Spine1
				{
					OFFSET 0.000000 11.900002 -1.516600
					CHANNELS 3 Xrotation Yrotation Zrotation
					JOINT Spine2
					{
						OFFSET 0.000000 13.600006 -2.842500
						CHANNELS 3 Xrotation Yrotation Zrotation
						JOINT Neck_virtual
						{
							OFFSET 0.000000 0.000000 0.000000
							CHANNELS 3 Xrotation Yrotation Zrotation
							JOINT Neck
							{
								OFFSET 0.000000 9.624100 -2.890100
								CHANNELS 3 Xrotation Yrotation Zrotation
								JOINT Head
								{
									OFFSET 0.000000 14.068802 -1.351900
									CHANNELS 3 Xrotation Yrotation Zrotation
									End Site
									{
										OFFSET 0 0 0
									}
								}
							}
						}
						JOINT LeftShoulder_virtual
						{
							OFFSET 0.000000 0.000000 0.000000
							CHANNELS 3 Xrotation Yrotation Zrotation
							JOINT LeftShoulder
							{
								OFFSET 15.263000 10.923401 -0.547700
								CHANNELS 3 Xrotation Yrotation Zrotation
								JOINT LeftArm
								{
									OFFSET 25.438599 -2.830597 -13.032500
									CHANNELS 3 Xrotation Yrotation Zrotation
									JOINT LeftForeArm
									{
										OFFSET 29.960503 0.000000 0.000000
										CHANNELS 3 Xrotation Yrotation Zrotation
										JOINT LeftHand
										{
											OFFSET 27.849251 0.000000 0.000000
											CHANNELS 3 Xrotation Yrotation Zrotation
											End Site
											{
												OFFSET 0 0 0
											}
										}
									}
								}
							}
						}
						JOINT RightShoulder_virtual
						{
							OFFSET 0.000000 0.000000 0.000000
							CHANNELS 3 Xrotation Yrotation Zrotation
							JOINT RightShoulder
							{
								OFFSET -15.263000 10.923401 -0.547700
								CHANNELS 3 Xrotation Yrotation Zrotation
								JOINT RightArm
								{
									OFFSET -25.438599 -2.830597 -13.032500
									CHANNELS 3 Xrotation Yrotation Zrotation
									JOINT RightForeArm
									{
										OFFSET -29.960503 0.000000 0.000000
										CHANNELS 3 Xrotation Yrotation Zrotation
										JOINT RightHand
										{
											OFFSET -27.849251 0.000000 0.000000
											CHANNELS 3 Xrotation Yrotation Zrotation
											End Site
											{
												OFFSET 0 0 0
											}
										}
									}
								}
							}
						}
					}
				}
			}
		}
	}
}
MOTION
Frames: 12
Frame Time: 0.03333333
-3.763844 89.800194 2.486977 0.000000 0.000000 0.000000 -10.800134 -54.491850 -7.069869 -25.256013 10.927617 19.894748 34.197381 13.108590 -0.375938 1.208489 0.840923 -12.746009 0.000000 0.000000 0.000000 -10.800134 -54.491850 -7.069869 -20.820590 -17.035518 -25.187738 42.310030 -2.389188 -3.227925 -16.007313 -0.049982 15.021982 0.000000 0.000000 0.000000 -10.800134 -54.491850 -7.069869 0.000000 -0.000002 0.000000 5.267458 0.419830 0.715806 4.893952 1.120453 0.299612 0.000000 0.000000 0.000000 8.444755 1.036566 0.033103 1.011584 2.230200 -0.044609 0.000000 0.000000 0.000000 8.444755 1.036566 0.033103 9.150568 -24.592610 -2.246833 -26.053171 8.217173 -60.618796 -91.270158 13.114519 -86.117149 0.000000 0.000000 0.000000 8.444755 1.036566 0.033103 10.411183 20.330613 -1.369223 3.446558 33.597011 47.887856 -111.710210 63.882554 98.143753 0.000000 0.000000 0.000000 
-3.573670 89.602722 3.772182 0.000000 0.000000 0.000000 -9.955750 -51.641967 -6.246333 -27.130633 10.691831 19.112094 36.250099 10.775064 -0.970268 -0.074092 0.717883 -10.998153 0.000000 0.000000 0.000000 -9.955750 -51.641967 -6.246333 -22.025403 -12.790270 -25.515007 47.419490 -5.743206 -0.981017 -14.591195 0.388168 12.532385 0.000000 0.000000 0.000000 -9.955750 -51.641967 -6.246333 0.000000 -0.000002 0.000000 5.201826 0.312769 0.902380 4.875919 0.893823 0.313338 0.000000 0.000000 0.000000 8.471694 1.741699 0.006405 1.041177 2.319115 -0.038256 0.000000 0.000000 0.000000 8.471694 1.741699 0.006405 8.936018 -24.743315 -2.968063 -27.022581 9.098562 -59.788744 -91.418121 12.788583 -85.389727 0.000000 0.000000 0.000000 8.471694 1.741699 0.006405 10.565201 19.946533 -2.142259 2.607391 35.855143 47.333552 -108.235255 63.791597 94.228948 0.000000 0.000000 0.000000 
-3.264002 89.212219 5.179012 0.000000 0.000000 0.000000 -9.208965 -48.784332 -5.529097 -29.291997 10.388645 18.431219 39.104230 8.459563 -1.893135 -1.752318 0.502841 -8.980831 0.000000 0.000000 0.000000 -9.208965 -48.784332 -5.529097 -24.206602 -7.294671 -25.102210 52.549529 -7.738411 -0.204937 -10.006982 0.126568 12.658790 0.000000 0.000000 0.000000 -9.208965 -48.784332 -5.529097 -0.000001 0.000003 0.000001 5.204033 0.295140 0.899988 4.863686 0.771861 0.290882 0.000000 0.000000 0.000000 8.586933 3.956523 -0.180184 1.109249 2.526762 -0.003783 0.000000 0.000000 0.000000 8.586933 3.956523 -0.180184 8.936042 -24.743282 -2.968072 -27.744167 9.347713 -59.481741 -91.593759 12.768141 -84.592876 0.000000 0.000000 0.000000 8.586933 3.956523 -0.180184 10.553692 19.880015 -2.126520 1.488008 36.451606 47.700361 -106.461277 64.067004 92.216078 0.000000 0.000000 0.000000 
-2.848207 88.768356 6.919407 0.000000 0.000000 0.000000 -8.538337 -45.907392 -4.910169 -31.338076 10.251668 17.566569 42.220616 6.211180 -2.869120 -3.771335 0.166290 -6.677630 0.000000 0.000000 0.000000 -8.538337 -45.907392 -4.910169 -24.288525 -3.448843 -22.896555 54.102010 -8.144264 -1.370478 -8.898452 -0.636673 14.886015 0.000000 0.000000 0.000000 -8.538337 -45.907392 -4.910169 0.000001 -0.000001 0.000000 5.222545 0.300016 0.810400 4.851442 0.664070 0.254403 0.000000 0.000000 0.000000 8.769058 6.939252 -0.451192 1.191390 2.773970 0.040958 0.000000 0.000000 0.000000 8.769058 6.939252 -0.451192 8.936025 -24.743252 -2.968066 -28.339508 9.473799 -59.267471 -91.721531 12.751774 -84.013226 0.000000 0.000000 0.000000 8.769058 6.939252 -0.451192 10.544413 19.799672 -2.108447 0.555384 36.837949 47.982659 -105.082863 64.259977 90.644636 0.000000 0.000000 0.000000 
-2.419877 88.340744 9.089958 0.000000 0.000000 0.000000 -7.929126 -43.004128 -4.360804 -32.985036 10.476238 16.287093 45.292180 4.093769 -3.424767 -6.121193 -0.302372 -4.335383 0.000000 0.000000 0.000000 -7.929126 -43.004128 -4.360804 -24.041820 -0.728794 -20.785010 54.927039 -6.355610 -3.248392 -9.614759 -1.705066 17.730235 0.000000 0.000000 0.000000 -7.929126 -43.004128 -4.360804 0.000000 0.000000 0.000000 5.249569 0.324385 0.663509 4.840479 0.567627 0.215606 0.000000 0.000000 0.000000 8.985982 10.031351 -0.753893 1.262283 2.980265 0.083618 0.000000 0.000000 0.000000 8.985982 10.031351 -0.753893 8.936015 -24.743264 -2.968063 -28.887370 9.462256 -59.134781 -91.816095 12.738667 -83.583368 0.000000 0.000000 0.000000 8.985982 10.031351 -0.753893 10.538751 19.739768 -2.095228 -0.255607 36.989381 48.190659 -103.995053 64.399900 89.398755 0.000000 0.000000 0.000000 
-1.988488 88.035301 11.544174 0.000000 0.000000 0.000000 -7.370426 -40.062078 -3.866255 -33.981861 11.127430 14.713245 47.761768 2.064745 -3.646725 -8.425847 -0.945259 -1.938931 0.000000 0.000000 0.000000 -7.370426 -40.062078 -3.866255 -23.442464 1.122574 -19.461726 55.059750 -2.513660 -4.286234 -11.288202 -2.545534 19.621815 0.000000 0.000000 0.000000 -7.370426 -40.062078 -3.866255 0.000000 0.000003 0.000000 5.292130 0.367551 0.509869 4.827342 0.486991 0.184786 0.000000 0.000000 0.000000 9.169683 12.582082 -1.034139 1.299083 3.065891 0.108857 0.000000 0.000000 0.000000 9.169683 12.582082 -1.034139 8.936020 -24.743274 -2.968076 -29.393958 9.305387 -59.020136 -91.883154 12.729293 -83.278837 0.000000 0.000000 0.000000 9.169683 12.582082 -1.034139 10.535587 19.698382 -2.086251 -0.918664 36.983647 48.243788 -103.112641 64.502292 88.415057 0.000000 0.000000 0.000000 
-1.531879 87.890495 13.824707 0.000000 0.000000 0.000000 -6.854223 -37.068751 -3.427410 -34.399070 11.723250 12.969652 49.230303 0.400251 -3.684990 -10.049519 -1.765675 0.277204 0.000000 0.000000 0.000000 -6.854223 -37.068751 -3.427410 -23.290860 2.789727 -18.070386 55.277042 1.900629 -4.923173 -12.688786 -2.643765 20.303395 0.000000 0.000000 0.000000 -6.854223 -37.068751 -3.427410 -0.000001 -0.000001 -0.000000 5.347680 0.426960 0.370381 4.817709 0.419702 0.159608 0.000000 0.000000 0.000000 9.303255 14.611766 -1.303209 1.306967 3.062747 0.118519 0.000000 0.000000 0.000000 9.303255 14.611766 -1.303209 8.936037 -24.743282 -2.968067 -29.910498 9.198809 -58.989701 -91.919661 12.723709 -83.113423 0.000000 0.000000 0.000000 9.303255 14.611766 -1.303209 10.533498 19.637147 -2.073472 -1.490210 36.950009 48.223458 -102.403271 64.577977 87.636504 0.000000 0.000000 0.000000 
-1.058814 87.881302 15.548439 0.000000 0.000000 0.000000 -6.375543 -34.023512 -3.053116 -34.565641 11.786693 11.135703 49.708160 -0.715912 -3.601829 -10.637178 -2.637490 2.034465 0.000000 0.000000 0.000000 -6.375543 -34.023512 -3.053116 -24.308401 4.163477 -15.836140 56.320374 5.920784 -6.019218 -13.552605 -1.924007 19.776388 0.000000 0.000000 0.000000 -6.375543 -34.023512 -3.053116 0.000000 -0.000001 0.000000 5.409909 0.495797 0.241289 4.803040 0.357252 0.134775 0.000000 0.000000 0.000000 9.421530 16.549268 -1.597796 1.309492 3.055899 0.125083 0.000000 0.000000 0.000000 9.421530 16.549268 -1.597796 8.936030 -24.743284 -2.968063 -30.341555 9.420644 -58.984598 -91.900667 12.726426 -83.200119 0.000000 0.000000 0.000000 9.421530 16.549268 -1.597796 10.529907 19.647372 -2.074852 -1.938488 37.010551 48.233003 -102.029332 64.614150 87.242525 0.000000 0.000000 0.000000 
-0.679775 87.945320 16.745638 0.000000 0.000000 0.000000 -5.932321 -30.948615 -2.743267 -34.687973 11.185172 9.340178 49.584086 -1.371714 -3.492316 -10.459837 -3.455311 3.256218 0.000000 0.000000 0.000000 -5.932321 -30.948615 -2.743267 -25.896304 5.366270 -12.104797 57.867186 8.275490 -8.313810 -14.295781 -0.867285 18.753743 0.000000 0.000000 0.000000 -5.932321 -30.948615 -2.743267 0.000000 0.000003 0.000000 5.475622 0.575956 0.135690 4.791437 0.306065 0.109424 0.000000 0.000000 0.000000 9.541933 18.367784 -1.903804 1.308776 3.045523 0.129653 0.000000 0.000000 0.000000 9.541933 18.367784 -1.903804 8.936047 -24.743255 -2.968073 -30.599599 9.741965 -58.947825 -91.822386 12.737892 -83.556552 0.000000 0.000000 0.000000 9.541933 18.367784 -1.903804 10.528474 19.609473 -2.066915 -2.259550 37.149740 48.246076 -102.045383 64.609956 87.283295 0.000000 0.000000 0.000000 
-0.556449 88.025894 17.722153 0.000000 0.000000 0.000000 -5.523588 -27.876644 -2.488529 -34.745627 9.892294 7.650675 49.339531 -1.630722 -3.414377 -10.119070 -4.187156 3.911952 0.000000 0.000000 0.000000 -5.523588 -27.876644 -2.488529 -27.624140 5.181403 -8.463643 59.495579 10.383912 -10.662548 -15.435804 0.447554 16.331636 0.000000 0.000000 0.000000 -5.523588 -27.876644 -2.488529 0.000000 -0.000001 0.000000 5.538372 0.659365 0.053250 4.780615 0.252037 0.087078 0.000000 0.000000 0.000000 9.665711 20.020391 -2.198031 1.306422 3.031785 0.133173 0.000000 0.000000 0.000000 9.665711 20.020391 -2.198031 8.936035 -24.743294 -2.968065 -30.887352 10.105097 -58.853233 -91.743975 12.748596 -83.912904 0.000000 0.000000 0.000000 9.665711 20.020391 -2.198031 10.525951 19.604205 -2.065382 -2.648692 37.316882 48.308569 -102.026299 64.609095 87.286191 0.000000 0.000000 0.000000 
-0.768173 88.104538 18.680836 0.000000 0.000000 0.000000 -5.147254 -24.816917 -2.272293 -34.711527 7.898216 6.071932 49.203918 -1.536370 -3.368266 -9.960495 -4.796476 3.990538 0.000000 0.000000 0.000000 -5.147254 -24.816917 -2.272293 -28.515857 4.152794 -5.108039 60.435884 11.834110 -12.874753 -17.505054 1.537383 13.284476 0.000000 0.000000 0.000000 -5.147254 -24.816917 -2.272293 0.000000 -0.000002 0.000000 5.598259 0.744283 -0.009949 4.771215 0.199928 0.067524 0.000000 0.000000 0.000000 9.795459 21.478039 -2.462430 1.303498 3.014845 0.136477 0.000000 0.000000 0.000000 9.795459 21.478039 -2.462430 8.936042 -24.743258 -2.968064 -31.204730 10.403705 -58.717429 -91.664335 12.759056 -84.274241 0.000000 0.000000 0.000000 9.795459 21.478039 -2.462430 10.523427 19.595755 -2.063200 -3.080125 37.451266 48.365444 -102.062554 64.602969 87.349370 0.000000 0.000000 0.000000 
-1.296736 88.195961 19.554594 0.000000 0.000000 0.000000 -4.800040 -21.739196 -2.068017 -34.675982 5.517747 4.718417 49.037951 -1.404641 -3.326532 -9.834657 -5.301033 3.630447 0.000000 0.000000 0.000000 -4.800040 -21.739196 -2.068017 -28.217940 3.377694 -2.446780 59.870938 12.463475 -13.869268 -20.586685 2.303146 10.139388 0.000000 0.000000 0.000000 -4.800040 -21.739196 -2.068017 0.000000 -0.000001 0.000000 5.650428 0.826635 -0.077770 4.763681 0.152434 0.049127 0.000000 0.000000 0.000000 9.932487 22.827978 -2.715087 1.300924 2.996135 0.140079 0.000000 0.000000 0.000000 9.932487 22.827978 -2.715087 8.936039 -24.743286 -2.968066 -31.453919 10.718151 -58.560102 -91.562381 12.771848 -84.736870 0.000000 0.000000 0.000000 9.932487 22.827978 -2.715087 10.521964 19.562171 -2.056140 -3.457556 37.613080 48.406623 -102.289446 64.577437 87.622352 0.000000 0.000000 0.000000 
